<?xml version="1.0" encoding="utf-8"?>
<!-- Generator: Adobe Illustrator 23.0.1, SVG Export Plug-In . SVG Version: 6.00 Build 0)  -->
<svg version="1.1" id="Layer_1" xmlns="http://www.w3.org/2000/svg" xmlns:xlink="http://www.w3.org/1999/xlink" x="0px" y="0px"
	 viewBox="0 0 57.3 19" style="enable-background:new 0 0 57.3 19;" xml:space="preserve">
<style type="text/css">
	.st0{fill:#9B9B9B;}
	.st1{fill:#757575;}
</style>
<title>Lifetime warrantly</title>
<desc>Created with Sketch.</desc>
<g id="Range-and-product-page">
	<g id="Product---Flex-Mount---Large" transform="translate(-1148.000000, -504.000000)">
		<g id="Product" transform="translate(172.000000, 166.000000)">
			<g id="Image-scroll-bar" transform="translate(95.000000, 284.000000)">
				<path id="Lifetime-warrantly" class="st0" d="M890.5,70.5l-1.8,1.3l-1.1-1.9l-2.2,0.5l-0.2-2.2l-2.2-0.4l0.7-2.1l-1.8-1.3
					l1.5-1.6l-1.1-1.9l2-0.9l-0.3-2.2l2.2,0l0.6-2.1l2,0.9l1.5-1.7l1.5,1.7l2-0.9l0.6,2.1l2.2,0l-0.3,2.2l2,0.9l-1.1,1.9l1.5,1.6
					l-1.8,1.3l0.7,2.1l-2.2,0.4l-0.2,2.2l-2.2-0.5l-1.1,1.9L890.5,70.5z M890.5,68.6l1.3,1l0.8-1.4l1.6,0.4l0.1-1.6l1.6-0.3
					l-0.5-1.5l1.3-0.9l-1.1-1.2l0.8-1.4l-1.5-0.6l0.2-1.6l-1.6,0l-0.5-1.5l-1.5,0.7l-1.1-1.2l-1.1,1.2l-1.5-0.7l-0.5,1.5l-1.6,0
					l0.2,1.6l-1.5,0.6l0.8,1.4l-1.1,1.2l1.3,0.9l-0.5,1.5l1.6,0.3l0.1,1.6l1.6-0.4l0.8,1.4L890.5,68.6z"/>
			</g>
		</g>
	</g>
</g>
<g id="Range-and-product-page_1_">
	<g id="Product---Flex-Mount---Large_1_" transform="translate(-958.000000, -504.000000)">
		<g id="Product_1_" transform="translate(172.000000, 166.000000)">
			<g id="Image-scroll-bar_1_" transform="translate(95.000000, 284.000000)">
				<path id="Returns" class="st1" d="M726.5,57.5c1.7,1.7,2.5,3.7,2.5,6s-0.8,4.3-2.5,6s-3.7,2.5-6,2.5s-4.3-0.8-6-2.5
					s-2.5-3.7-2.5-6s0.8-4.3,2.5-6s3.7-2.5,6-2.5S724.8,55.8,726.5,57.5z M722.6,56.4v3.5c0.6,0.4,1.2,0.9,1.6,1.6h3.4
					c-0.4-1.2-1-2.2-1.9-3.1C724.9,57.4,723.8,56.7,722.6,56.4z M722.8,61.2c-0.6-0.6-1.4-0.9-2.3-0.9c-0.9,0-1.6,0.3-2.3,0.9
					c-0.6,0.6-0.9,1.4-0.9,2.3s0.3,1.6,0.9,2.3c0.6,0.6,1.4,0.9,2.3,0.9c0.9,0,1.6-0.3,2.3-0.9c0.6-0.6,0.9-1.4,0.9-2.3
					S723.4,61.9,722.8,61.2z M719.4,56.1v3.3c0.4-0.1,0.7-0.1,1.1-0.1c0.4,0,0.7,0,1.1,0.1v-3.3c-0.4,0-0.7-0.1-1.1-0.1
					C720.1,56.1,719.8,56.1,719.4,56.1z M718.4,56.4c-1.2,0.4-2.2,1-3.1,1.9c-0.9,0.9-1.5,1.9-1.9,3.1h3.4c0.4-0.6,0.9-1.2,1.6-1.6
					V56.4z M713.2,64.6h3.2c-0.1-0.4-0.1-0.7-0.1-1.1s0-0.7,0.1-1.1h-3.2c-0.1,0.4-0.1,0.7-0.1,1.1S713.1,64.2,713.2,64.6z
					 M718.4,70.6v-3.5c-0.7-0.4-1.2-0.9-1.6-1.6h-3.4c0.4,1.2,1,2.2,1.9,3.1C716.1,69.7,717.2,70.3,718.4,70.6z M721.6,70.9v-3.3
					c-0.4,0.1-0.7,0.1-1.1,0.1c-0.4,0-0.7,0-1.1-0.1v3.3c0.4,0,0.7,0.1,1.1,0.1C720.9,70.9,721.2,70.9,721.6,70.9z M722.6,70.6
					c1.2-0.4,2.2-1,3.1-1.9c0.9-0.9,1.5-1.9,1.9-3.1h-3.4c-0.4,0.7-0.9,1.2-1.6,1.6V70.6z M724.6,64.6h3.2c0.1-0.4,0.1-0.7,0.1-1.1
					s0-0.7-0.1-1.1h-3.2c0.1,0.4,0.1,0.7,0.1,1.1S724.7,64.2,724.6,64.6z"/>
			</g>
		</g>
	</g>
</g>
<g id="Range-and-product-page_2_">
	<g id="Product---Flex-Mount---Large_2_" transform="translate(-994.000000, -450.000000)">
		<g id="Product_2_" transform="translate(172.000000, 166.000000)">
			<g id="Image-scroll-bar_2_" transform="translate(95.000000, 284.000000)">
				<path id="Shipping-" class="st1" d="M779.4,14.1c0.3,0,0.5-0.1,0.8-0.3c0.2-0.2,0.3-0.5,0.3-0.7s-0.1-0.5-0.3-0.8
					c-0.2-0.2-0.5-0.3-0.8-0.3s-0.5,0.1-0.7,0.3c-0.2,0.2-0.3,0.5-0.3,0.8s0.1,0.5,0.3,0.7C778.9,14,779.2,14.1,779.4,14.1z
					 M780.5,7.7h-1.8v1.8h3.2L780.5,7.7z M770.9,14.1c0.3,0,0.5-0.1,0.8-0.3c0.2-0.2,0.3-0.5,0.3-0.7s-0.1-0.5-0.3-0.8
					c-0.2-0.2-0.5-0.3-0.8-0.3s-0.5,0.1-0.7,0.3c-0.2,0.2-0.3,0.5-0.3,0.8s0.1,0.5,0.3,0.7C770.4,14,770.7,14.1,770.9,14.1z
					 M780.9,6.7l2.1,2.8v3.6h-1.4c0,0.4-0.1,0.7-0.3,1.1c-0.2,0.3-0.5,0.6-0.8,0.8c-0.3,0.2-0.7,0.3-1.1,0.3c-0.4,0-0.7-0.1-1.1-0.3
					c-0.3-0.2-0.6-0.5-0.8-0.8c-0.2-0.3-0.3-0.7-0.3-1.1h-4.2c0,0.4-0.1,0.7-0.3,1.1c-0.2,0.3-0.5,0.6-0.8,0.8
					c-0.3,0.2-0.7,0.3-1.1,0.3c-0.4,0-0.7-0.1-1.1-0.3c-0.3-0.2-0.6-0.5-0.8-0.8c-0.2-0.3-0.3-0.7-0.3-1.1h-1.4V5.2
					c0-0.4,0.1-0.7,0.4-1s0.6-0.4,1-0.4h9.9v2.9H780.9z"/>
			</g>
		</g>
	</g>
</g>
</svg>
