<?xml version="1.0" encoding="UTF-8"?>
<svg width="12px" height="23px" viewBox="0 0 12 23" version="1.1" xmlns="http://www.w3.org/2000/svg" xmlns:xlink="http://www.w3.org/1999/xlink">
    <!-- Generator: Sketch 50.2 (55047) - http://www.bohemiancoding.com/sketch -->
    <title>icon-phone</title>
    <desc>Created with Sketch.</desc>
    <defs></defs>
    <g id="Designs-Latest" stroke="none" stroke-width="1" fill="none" fill-rule="evenodd">
        <g id="Menu-1b" transform="translate(-42.000000, -344.000000)" fill="#000000" fill-rule="nonzero">
            <g id="Popup" transform="translate(0.000000, 204.000000)">
                <g id="Items" transform="translate(26.000000, 126.000000)">
                    <g id="Col---iOS">
                        <g id="Group">
                            <path d="M26.2,37 C27.184,37 28,36.2482927 28,35.3226829 L28,21.9321951 L28,19.2731707 L28,15.6773171 C28,14.7573171 27.196,14 26.206,14 L17.794,14 C16.804,14 16,14.7517073 16,15.6773171 L16,17.0629268 L16,22.4819512 L16,35.3226829 C16,36.2482927 16.816,37 17.8,37 L26.2,37 Z M23.56,14.7292683 C23.686,14.7292683 23.788,14.8246341 23.788,14.942439 C23.788,15.0602439 23.686,15.1556098 23.56,15.1556098 C23.434,15.1556098 23.332,15.0602439 23.332,14.942439 C23.332,14.8246341 23.434,14.7292683 23.56,14.7292683 Z M20.968,14.9368293 C20.968,14.9143902 20.974,14.8358537 21.082,14.8358537 L22.726,14.8358537 C22.834,14.8358537 22.84,14.9143902 22.84,14.9368293 L22.84,14.9536585 C22.84,14.9760976 22.834,15.0546341 22.726,15.0546341 L21.082,15.0546341 C20.974,15.0546341 20.968,14.9760976 20.968,14.9536585 L20.968,14.9368293 Z M24.388,15.6829268 C24.826,15.6829268 24.964,15.4360976 25,15.2173171 C25.006,15.1836585 25,14.7797561 25,14.7629268 C25.018,14.6226829 25.174,14.5721951 25.264,14.5609756 L26.32,14.5609756 C26.914,14.5609756 27.4,15.0153659 27.4,15.5707317 L27.4,35.4292683 C27.4,35.9846341 26.914,36.4390244 26.32,36.4390244 L17.68,36.4390244 C17.086,36.4390244 16.6,35.9846341 16.6,35.4292683 L16.6,15.5707317 C16.6,15.0153659 17.086,14.5609756 17.68,14.5609756 L18.736,14.5609756 C18.826,14.5721951 18.982,14.6226829 19,14.7629268 C19,14.7741463 18.994,15.1836585 19,15.2173171 C19.042,15.4360976 19.18,15.6829268 19.612,15.6829268 L24.388,15.6829268 Z" id="icon-phone"></path>
                        </g>
                    </g>
                </g>
            </g>
        </g>
    </g>
</svg>