<?xml version="1.0" encoding="UTF-8"?>
<svg width="43px" height="36px" viewBox="0 0 43 36" version="1.1" xmlns="http://www.w3.org/2000/svg" xmlns:xlink="http://www.w3.org/1999/xlink">
    <!-- Generator: Sketch 57.1 (83088) - https://sketch.com -->
    <title>“</title>
    <desc>Created with Sketch.</desc>
    <g id="Homepage" stroke="none" stroke-width="1" fill="none" fill-rule="evenodd" opacity="0.2">
        <g id="Homepage---Large---Current" transform="translate(-226.000000, -4766.000000)" fill="#000000" fill-rule="nonzero">
            <g id="Customer-reviews" transform="translate(47.000000, 4560.000000)">
                <path d="M188.6,241.84 C186.119988,241.84 184.000009,240.82001 182.24,238.78 C180.479991,236.73999 179.6,234.160016 179.6,231.04 C179.6,226.559978 181.099985,221.880024 184.1,217 C187.100015,212.119976 190.879977,208.440012 195.44,205.96 L198.92,213.16 L198.44,213.64 C196.43999,215.320008 194.800006,216.899993 193.52,218.38 C192.239994,219.860007 191.320003,221.839988 190.76,224.32 C192.120007,224.32 193.559992,225.199991 195.08,226.96 C196.6,228.720009 197.36,230.719989 197.36,232.96 C197.36,235.04001 196.520008,237.03999 194.84,238.96 C193.159992,240.88001 191.080012,241.84 188.6,241.84 Z M210.8,241.84 C208.319988,241.84 206.200009,240.82001 204.44,238.78 C202.679991,236.73999 201.8,234.160016 201.8,231.04 C201.8,226.559978 203.299985,221.880024 206.3,217 C209.300015,212.119976 213.039978,208.440012 217.52,205.96 L221.12,213.16 L220.64,213.64 C218.63999,215.320008 217.000006,216.899993 215.72,218.38 C214.439994,219.860007 213.520003,221.839988 212.96,224.32 C214.240006,224.32 215.679992,225.199991 217.28,226.96 C218.880008,228.720009 219.68,230.719989 219.68,232.96 C219.68,235.04001 218.820009,237.03999 217.1,238.96 C215.379991,240.88001 213.280012,241.84 210.8,241.84 Z" id="“"></path>
            </g>
        </g>
    </g>
</svg>