<?xml version="1.0" encoding="UTF-8"?>
<svg width="120px" height="40px" viewBox="0 0 120 40" version="1.1" xmlns="http://www.w3.org/2000/svg" xmlns:xlink="http://www.w3.org/1999/xlink">
    <!-- Generator: Sketch 41 (35326) - http://www.bohemiancoding.com/sketch -->
    <title>Logo</title>
    <desc>Created with Sketch.</desc>
    <defs></defs>
    <g id="Holding-Page-V2" stroke="none" stroke-width="1" fill="none" fill-rule="evenodd">
        <g id="Amura" transform="translate(-30.000000, -20.000000)">
            <g id="Header" transform="translate(30.000000, 19.000000)">
                <g id="Logo" transform="translate(0.000000, 1.000000)">
                    <path d="M50.378,26 L53.114,26 L53.996,23.138 L58.658,23.138 L59.54,26 L62.582,26 L58.406,13.13 L54.608,13.13 L50.378,26 Z M56.336,15.506 L58.028,21.068 L54.626,21.068 L56.336,15.506 Z M64.112,26 L66.722,26 L66.722,20.438 C66.722,19.16 67.532,18.512 68.54,18.512 C69.458,18.512 70.016,19.052 70.016,20.258 L70.016,26 L72.608,26 L72.608,20.438 C72.608,19.16 73.418,18.512 74.426,18.512 C75.362,18.512 75.902,19.052 75.902,20.258 L75.902,26 L78.494,26 L78.494,19.97 C78.494,17.468 77.144,16.37 75.398,16.37 C74.21,16.37 72.986,16.874 72.23,18.008 C71.78,16.892 70.844,16.37 69.602,16.37 C68.198,16.37 67.19,17.144 66.722,18.026 L66.722,16.586 L64.112,16.586 L64.112,26 Z M83.858,26.198 C85.406,26.198 86.36,25.478 86.846,24.524 L86.846,26 L89.438,26 L89.438,16.586 L86.846,16.586 L86.846,22.112 C86.846,23.498 85.982,24.182 84.884,24.182 C83.768,24.182 83.246,23.57 83.246,22.292 L83.246,16.586 L80.654,16.586 L80.654,22.652 C80.654,25.118 82.022,26.198 83.858,26.198 Z M91.742,26 L94.352,26 L94.352,21.284 C94.352,19.484 95.468,18.854 97.394,18.872 L97.394,16.442 C95.864,16.46 94.946,17.126 94.352,18.386 L94.352,16.586 L91.742,16.586 L91.742,26 Z M101.642,26.198 C103.118,26.198 103.946,25.622 104.486,24.866 L104.486,26 L107.024,26 L107.024,19.862 C107.024,17.306 105.386,16.37 103.082,16.37 C100.778,16.37 99.014,17.36 98.852,19.592 L101.318,19.592 C101.426,18.782 101.894,18.26 102.92,18.26 C104.108,18.26 104.45,18.872 104.45,19.988 L104.45,20.366 L103.388,20.366 C100.508,20.366 98.492,21.194 98.492,23.39 C98.492,25.37 99.932,26.198 101.642,26.198 Z M102.416,24.38 C101.462,24.38 101.048,23.93 101.048,23.246 C101.048,22.238 101.93,21.914 103.442,21.914 L104.45,21.914 L104.45,22.706 C104.45,23.75 103.568,24.38 102.416,24.38 Z" id="Amura" fill="#000000"></path>
                    <path d="M111.482,16 L112.406,16 L112.406,12.652 L113.684,12.652 L113.684,11.8 L110.204,11.8 L110.204,12.652 L111.482,12.652 L111.482,16 Z M114.992,16 L115.898,16 L115.898,13.276 L117.068,15.052 L117.092,15.052 L118.274,13.258 L118.274,16 L119.192,16 L119.192,11.8 L118.196,11.8 L117.092,13.576 L115.988,11.8 L114.992,11.8 L114.992,16 Z" id="TM" fill="#000000"></path>
                    <g id="Mark" fill="#BCB190">
                        <path d="M2,20 C2,29.9426778 10.0579981,38 20,38 C29.9426778,38 38,29.9420019 38,20 C38,10.0573222 29.9420019,2 20,2 C10.0573222,2 2,10.0579981 2,20 Z M0,20 C0,8.954305 8.95187636,0 20,0 C31.045695,0 40,8.95187636 40,20 C40,31.045695 31.0481236,40 20,40 C8.954305,40 0,31.0481236 0,20 Z" id="Rectangle-3"></path>
                        <path d="M5.75,20 C5.75,27.8713119 12.1292232,34.25 20,34.25 C27.8713119,34.25 34.25,27.8707768 34.25,20 C34.25,12.1286881 27.8707768,5.75 20,5.75 C12.1286881,5.75 5.75,12.1292232 5.75,20 Z M3.75,20 C3.75,11.0253728 11.0233995,3.75 20,3.75 C28.9746272,3.75 36.25,11.0233995 36.25,20 C36.25,28.9746272 28.9766005,36.25 20,36.25 C11.0253728,36.25 3.75,28.9766005 3.75,20 Z" id="Rectangle-3"></path>
                        <path d="M13.7400015,26.1000004 L15.4800015,26.1000004 C15.8000015,26.1000004 15.9800015,25.9000004 16.0600015,25.7000004 L17.0400015,23.5400004 L23.0200015,23.5400004 L24.0000015,25.7000004 C24.1400015,25.9800004 24.2800015,26.1000004 24.5800015,26.1000004 L26.3200015,26.1000004 C26.6200015,26.1000004 26.7800015,25.8400004 26.6600015,25.5800004 L20.5000015,12.1200004 C20.4400015,12.0000004 20.3600015,11.9000004 20.1600015,11.9000004 L19.9600015,11.9000004 C19.7800015,11.9000004 19.6800015,12.0000004 19.6200015,12.1200004 L13.4000015,25.5800004 C13.2800015,25.8400004 13.4400015,26.1000004 13.7400015,26.1000004 Z M18.0200015,21.3200004 L19.9800015,16.9200004 L20.0400015,16.9200004 L22.0400015,21.3200004 L18.0200015,21.3200004 Z" id="Combined-Shape"></path>
                    </g>
                </g>
            </g>
        </g>
    </g>
</svg>