<?xml version="1.0" encoding="utf-8"?>
<!-- Generator: Adobe Illustrator 23.0.1, SVG Export Plug-In . SVG Version: 6.00 Build 0)  -->
<svg version="1.1" id="Layer_1" xmlns="http://www.w3.org/2000/svg" xmlns:xlink="http://www.w3.org/1999/xlink" x="0px" y="0px"
	 viewBox="0 0 239.1 138.6" style="enable-background:new 0 0 239.1 138.6;" xml:space="preserve">
<style type="text/css">
	.st0{opacity:0.5;}
	.st1{fill:#959595;}
</style>
<title>map2</title>
<g class="st0">
	<path class="st1" d="M239.1,117.5c-1.6,1.2-3.2,2.5-4.9,3.8c-0.1-1.1,1.7-1.4,0.3-2.4c2-0.9,2.4-2.5,1.9-4.6c0.1,0,0.2,0,0.3,0
		c0.2,0.3,0.5,0.7,0.5,1c-0.1,1.8,0.4,2.2,2,1.6C239.1,117.1,239.1,117.3,239.1,117.5z"/>
	<path class="st1" d="M173.1,70.1c-0.6,0.4-1.2,0.8-2,1.3c-1.3-4.6-4.2-8.5-4.5-13.5c-1,0.9-1.5,0.8-2.7-0.8
		c0.2-0.1,0.4-0.3,0.7-0.5c-0.1-0.1-0.1-0.2-0.2-0.2c-0.7-0.4-1.6-0.7-2.2-1.3c-1-1.2-2.2-0.8-3.4-0.9c-1.5,0-2.9-0.3-4.4-0.6
		c-0.3-0.1-0.5-0.8-0.8-1.2c-1.4,0.9-3.7,0.2-4.5-1.4c-0.4-0.7-0.6-1.7-1.6-1.5c-0.3,0-0.6,0.2-1.1,0.4c0.6,0.8,1.1,1.5,1.5,2.2
		c0.4,0.7,0.6,1.4,1,2.2c0.1-0.2,0.3-0.4,0.6-0.8c0.1,0.2,0.2,0.3,0.3,0.5c0.1,0.5,0.2,1,0.4,1.5c0.7-0.3,1.4-0.5,2-0.8
		c0.5-0.3,0.8-0.8,1.3-1.2c0.2,1.2,0.8,2,2,2.4c0.4,0.2,1.1,1.2,1,1.4c-0.3,0.6,0.2,1.7-1,1.8c-0.1,0-0.3,0.2-0.3,0.3
		c-0.4,1.8-1.7,2.5-3,3.2c-1.3,0.7-2.4,1.6-3.6,2.4c-1.1,0.6-2.2,1.3-3.3,1.7c-0.5,0.2-1.3,0.1-1.4-0.9c-0.1-0.9-0.3-1.8-0.4-2.7
		c-0.1-0.3-0.1-0.6-0.3-0.8c-0.8-1.1-1.7-2.2-2.5-3.4c-0.2-0.3-0.3-0.8-0.4-1.3c-0.1-0.5,0-1.2-0.3-1.4c-1.3-1.1-1.8-2.7-2.7-4.1
		c-0.1-0.2-0.4-0.3-0.6-0.5c-0.6-0.4-1.2-0.7-1.5-0.9c1.8,4.2,3.9,8.9,6,13.8c0.1-0.4,0.2-0.7,0.3-0.9c1.3,1.9,2.5,3.7,3.5,5.3
		c1.8-0.4,3.4-0.8,5.2-1.2c0,0.4,0.1,1,0,1.5c-0.4,1.3-0.8,2.7-1.3,4c-0.5,1.4-1.5,2.4-2.6,3.4c-1.2,1-2.3,2.3-3.2,3.7
		c-0.8,1.3-1.4,2.7-2,4.1c-0.6,1.4-0.2,4.2,0.9,5.3c0.1,0.1,0.3,0.2,0.2,0.3c0,1.3,0,2.6-0.1,3.9c-0.1,0.4-0.6,0.8-1,1.2
		c-1.2,1.2-2.4,2.3-3.6,3.5c-0.2,0.2-0.1,0.7-0.1,1.1c0,0.4,0.2,0.8,0.2,1.3c0.1,1.4-0.2,2.4-1.6,3c-0.5,0.2-0.6,0.6-0.7,1.4
		c0,0.9,0,2.3-1.3,2.9c-0.5,0.2-0.7,0.9-1.1,1.3c-1,1-2.1,2-3.2,3c-0.2,0.2-0.4,0.3-0.7,0.3c-1.2,0-2.4,0.2-3.5,0.7
		c-1.2,0.5-1.8-0.8-1.8-2.2c0-1.1-0.7-2.3-1-3.4c-0.5-1.8-1-3.6-1.6-5.4c-0.2-0.7-0.3-1.5-0.7-2.1c-1.9-3-2.1-6.1-0.3-9.3
		c0.1-0.2,0.3-0.4,0.2-0.6c-0.2-1.4-0.2-3-0.7-4.3c-0.8-1.9-1.9-3.6-2.9-5.3c-0.1-0.2-0.3-0.6-0.2-0.8c0.2-1,0.4-2,0.7-3
		c0.3-1-0.1-1.6-0.9-1.9c-0.4-0.2-1-0.1-1.4-0.3c-0.5-0.2-0.8-0.5-1.3-0.8c-0.5-0.4-1-1.1-1.4-1c-1.3,0.2-2.5,0.7-3.7,1
		c-0.4,0.1-0.9,0.3-1.2,0.2c-1-0.5-1.9-0.4-2.8,0.3c-0.6,0.5-1.1,0.5-1.8,0.1c-2.5-1.6-4.4-3.7-5.6-6.6c-0.2-0.6-0.7-1-0.9-1.6
		c-0.4-1-0.5-2.1,0.1-3.1c0.2-0.3,0.2-0.8,0.1-1.3c-0.4-3.1,0.2-5.8,2-8.3c0.6-0.9,1.2-1.7,2.2-2.1c0.6-0.3,1-1.3,1.3-2
		c0.3-1.1,0.6-2.1,1.6-3c0.8-0.6,1.2-1.8,1.9-2.9c-0.2-1.3-1.4-0.8-2-1c-0.2-0.6-0.3-1.1-0.4-1.6c0-0.2,0-0.4,0-0.6
		c0.2-1.2,0.5-2.5,0.8-4.1c1.2-0.8,2.8,0,4.3,0.1c0.8,0.1,1,0,1.1-0.8c0.2-2.4,0.3-2.4-1.8-3.6c-0.1-0.1-0.2-0.2-0.4-0.5
		c0.5-0.1,1.1-0.4,1.3-0.2c1,0.6,1-0.1,1-0.8c1.4,0.3,2-0.1,2.4-1.5l0,0c0.9-0.1,1.6-0.3,2.1-1.4c0.3-0.6,1.3-0.9,2.1-1
		c0.8-0.1,0.8-0.4,0.7-1.1c-0.4-1.7-0.4-1.7,1.3-2.6c-0.1,0.9-0.2,1.7-0.2,2.5c0,0.3,0.7,0.7,1,0.6c0.6,0,1.1-0.4,1.6,0.2
		c0.1,0.2,0.8,0,1.2-0.2c0.7-0.4,1.4-0.8,2.2-0.3c0.3,0.2,0.9-0.4,1-0.4c0.2-1,0.4-1.7,0.5-2.4c0.5,0.2,1,0.4,1.6,0.5
		c0.9-0.8-0.5-1.2-0.5-2.1c1.3-0.2,2.5-0.4,3.8-0.6c0-0.1,0-0.3,0-0.4c-0.7,0-1.4,0-2.1,0c-0.6,0.1-1.1,0.4-1.6,0.3
		c-0.5-0.1-1.4-0.5-1.4-0.8c0-0.7-1.1-1.7,0.2-2.3c0.7-0.3,1.2-1,1.8-1.5c-1.3-0.9-1.8-0.8-2.4,0.7c-0.1,0.3-0.4,0.5-0.7,0.7
		c-0.3,0.2-0.7,0.4-1,0.6c-0.9,0.7-0.7,1.6,0.6,2.6c-0.3,1.1-2.3,1.4-1.2,3.1c-1,0.4-1.9,0.8-2.8,1.1c0-0.1-0.1-0.2-0.1-0.3
		c-0.2,0.3-0.3,0.6-0.5,1.1c-0.2-0.5-0.3-0.8-0.5-1.2c0.4-0.2,0.7-0.4,1.1-0.6c-0.4-0.9-0.8-1.7-1.3-2.7c-0.3,0.2-0.8,0.4-1.1,0.6
		c-1.2,0.9-2.2,0.5-2.4-1c-0.3-1.8,0.3-2.6,2.2-3.4c0.9-0.4,1.5-1.3,2.3-2c0.6-0.6,1.2-1.3,1.9-2.1c-0.4,0.1-0.6,0.1-0.9,0.2
		c0-0.1,0-0.2,0-0.3c0.5-0.1,0.9-0.1,1.4-0.2c0.1,0,0.2,0,0.3-0.3c0.6-0.2,1.3-0.5,1.9-0.6c0.7-0.2,1.5-0.5,2.2-0.6
		c1-0.1,2-0.1,3-0.1c0.6,0,0.9,0.8,1.7,0.9c1.6,0.2,3.2,0.8,4.8,1.4c0.5,0.2,0.9,0.5,1.4,0.8c-0.8,1-0.8,1-4.8,0.4
		c0.3,0.4,0.7,1,1.1,1.5c0.2,0.2,0.5,0.5,0.7,0.4c0.2,0,0.4-0.4,0.6-0.6c0.5,0.2,1.1,0.3,1.7,0.5c0-1.2,1.1-1.9,2.5-1.5
		c-0.3-0.8-0.6-1.5-0.9-2.2c0.5,0.2,1.1,0.3,2,0.6c-0.5,0.3-0.7,0.4-1,0.5c0.2,0.1,0.3,0.3,0.4,0.3c1.4-0.5,2.9-1,4.1-1.5
		c0.4,0.2,0.8,0.6,1.1,0.6c1.1-0.1,2.1-0.3,3.2-0.6c0.1,0,0.1-0.4,0.1-0.7c1.6,0.4,3.1,0.8,4.6,1.2c0.1,0,0.1-0.1,0.2-0.1
		c-0.7-0.6-1.4-1.2-2.1-1.8c0.4-0.8,0.7-1.5,1-2c0.7,0.2,1.2,0.4,1.8,0.6c-0.1,0-0.1,0.1-0.2,0.1c0.7,1.2,1.5,2.4,2.4,3.8
		c-0.3,0.2-0.9,0.6-1.4,0.9c0,0.1,0,0.2,0,0.3c0.6-0.1,1.4-0.1,1.8-0.4c0.3-0.2,0.3-1,0.3-1.6c0-0.1,0-0.3-0.1-0.3
		c-0.7-0.7-1.5-1.3-2.3-2c0.3-0.3,0.6-0.6,0.7-0.7c0.9,0.5,1.7,0.9,2.5,1.3c0.1-0.1,0.1-0.3,0.2-0.4c-0.5-0.1-1.1-0.2-1.6-0.3
		c0-0.1,0-0.3-0.1-0.4c0.6-0.1,1.3-0.2,1.9-0.4c-0.1-0.2-0.2-0.4-0.5-0.7c1.1-0.1,2.1-0.1,3.2-0.2c-0.3-0.2-0.5-0.4-0.9-0.7
		c1.8-0.6,3.2-1.5,5.1-1c0.5,0.1,1.1-0.4,1.6-0.7c0.4-0.2,0.9-0.6,1.1-0.5c1.7,0.9,3.6,0.5,5.4,0.9c0.5,0.1,0.9,0.4,1.5,0.7
		c-1,0.8-1.9,1.4-2.7,2c0.8-0.7,2.5,0.3,2.7-1.2c2.3,0.4,4.6,0.8,6.8,1.2c0.1-0.3,0.1-0.5,0.2-0.8c1.1,0.7,2.3-0.2,3.3,0.6
		c0.8,0.6,1.6,1.2,2.4,1.7c0.6,0.4,1.1,0.6,1-0.4c1.4,0,2.7,0,4.1,0c-0.3-0.3-0.4-0.5-0.7-0.9c1.2-0.1,2.2-0.4,3.2,0.4
		c0.2,0.1,0.5,0.4,0.6,0.3c1.4-1,2.9,0,3.9,0.5c1.1,0.5,1.8,0.1,2.6,0.1c1.3-0.1,2.6-0.1,3.5,1.1c0.2,0.2,0.6,0.4,0.9,0.3
		c1.3-0.1,2.7-0.4,4-0.4c0.5,0,1.1,0.4,1.6,0.6c0.3,0.1,0.5,0.2,0.9,0.1c-0.4-0.2-0.7-0.4-1.1-0.6c5.6-0.3,10.7,2.1,16.3,3.1
		c-1.4,1,0.1,1,0.3,1.8c-2-0.5-3.7-1-5.5-1.5c0.3,0.3,0.5,0.7,0.8,1c-0.4,0.2-0.8,0.4-1.2,0.6c-0.1-0.2-0.3-0.4-0.4-0.6
		c0.9,0.5,1.9,1.1,2.8,1.6c0,0.1,0,0.2,0,0.4c-1.4-0.3-2.4,0-2.7,1.6c0,0.2-0.5,0.3-0.8,0.3c-1.1,0.1-2.2,0.1-3.4,0.2
		c-0.1,0.2-0.1,0.3-0.2,0.5c1,1,2,2,3.1,3c-0.2,0-0.3,0-0.5,0c-0.1,0.1-0.1,0.1-0.2,0.2c0.4,0.3,0.8,0.5,0.9,0.6
		c-0.2,1.8-0.3,3.3-0.5,5.1c-0.3-0.8-0.4-1.2-0.6-1.5c-1.1-1.1-2.3-2.1-3.3-3.3c-0.6-0.7-1.1-1.7-1.1-2.5c0-1,0.7-2,1-3
		c-0.3-0.5-0.6-1-1-1.6c-0.1,0.4-0.1,0.6-0.2,0.7c-0.1,0.3-0.1,0.8-0.3,1c-0.1,0.1-0.5-0.1-0.8-0.2c-0.1,0-0.3-0.2-0.4-0.3
		c-0.6-0.1-1.2-0.1-1.8-0.2c0,0.7,0,1.4,0,2.2c-0.5,0.1-1,0.6-1.8-0.2c-0.3-0.3-1.2,0-1.8,0c-0.7,0-1.4,0-2.1-0.2
		c-0.9-0.3-1.8,0.1-2.1,1.1c-0.4,1.1-0.8,2.2-1.2,3.4c0.4,0.1,0.9,0.2,1.5,0.3c-0.1-0.3-0.1-0.5-0.2-0.8c0.2,0.1,0.4,0.1,0.4,0.2
		c0.3,0.7,0.3,1.5,1.4,0.9c0.4-0.2,1.2,0.4,1.8,0.7c0.4,0.2,0.7,0.5,1,0.8l0,0c0.2,0.7,0.2,1.4,0.6,1.9c1.5,2.2,0.5,4.4,0.1,6.6
		c-0.1,0.7-0.6,1.1-1.5,0.7c-0.9-0.4-1.1,0.4-1.3,1c-0.2,0.7-0.4,1.5-0.6,2.4c0.5,0.5,1.4,1.1,2.1,1.9c0.9,0.9,0.9,2.2,0.1,2.6
		c-0.4,0.2-0.8,0.3-1.3,0.5c-0.2-0.8-0.4-1.7-0.8-2.5c-0.1-0.4-0.5-0.9-0.8-0.9c-1,0.1-1.1-0.5-1-1.3c0-0.2-0.1-0.3-0.2-0.7
		c-0.7,0.2-1.5,0.4-2.2,0.5c-0.2,0-0.5-0.3-0.7-0.6c-0.2-0.2-0.2-0.6-0.3-0.9c-0.2,0.1-0.5,0.3-0.7,0.4c-0.5,0.5-0.9,1-1.5,1.6
		c0.1,0.1,0.3,0.4,0.5,0.5c0.2,0.1,0.6,0.1,0.7,0.3c0.7,0.6,0.7,0.7,1.4,0c0.6,0.2,1.1,0.4,1.6,0.6c-0.2-0.2-0.4-0.4-0.5-0.6
		c-0.5,0.8-0.9,1.7-1.4,2.5c1,1.1,2,2.1,2.9,3.2c0.3,0.4,0.2,1,0.4,1.8c0.8,0.2,0.8,0.9,0.3,1.9c-0.7,1.6-0.8,3.5-2.2,4.7
		c-0.4,0.3-0.8,0.6-1.2,0.8c-1.4,0.6-2.9,0.9-4,2.3c-0.5-0.8-0.8-1.8-1.9-0.9c-1.1,0.9-1.4,2-0.7,3.2c0.3,0.4,0.5,0.9,0.9,1.2
		c1.8,1,2.1,2.8,2,4.7c0,0.2,0,0.4,0,0.5c-1.1,1-2.2,1.9-3.5,3c0-0.7,0.1-1.1,0.1-1.3c-1.4-1.2-2.6-2.4-3.8-3.5
		c-0.5,1-0.4,3.4-0.1,4.4c0.4,1.2,1.1,1.9,2,2.6c0.8,0.7,1.3,1.6,1.3,2.9c0,0.6,0.5,1.3,0.7,1.9c-2.2,0-2.9-1.7-3.3-3.6
		c-0.2-1.2-0.4-2.3-1.7-2.9c-0.2-0.1-0.4-0.8-0.4-1.2c0.5-2.6-0.4-4.8-1.2-7.1c-0.1-0.2-0.3-0.3-0.3-0.4c-0.7,0.3-1.4,0.6-2.2,0.9
		c0.2-3.1-2-4.5-2.8-6.4c-0.9,0.2-1.7,0.3-2.5,0.5c-0.3,0.1-0.6,0.1-0.7,0.3c-1.1,1.4-2.2,2.9-3.4,4.4c-0.5,0.6-1.1,1.1-1.5,1.4
		c-0.2,2.1-0.4,3.9-0.5,5.8C173,69.8,173.1,70,173.1,70.1L173.1,70.1z M117.8,45.8c1,0.5,1.8,0.9,2.6,1.3c1,0.6,1.8,1.5,3,1.7
		c0,0,0,0.1,0.1,0.1c0.4,0.2,0.7,0.4,1.1,0.6c0.2-0.4,0.4-0.8,0.5-1.2c0.2-1.4,1.2-1.8,2.3-1.2c0.7,0.4,1.4,1,2.2,1.1
		c1.2,0.1,2.5,0.8,3.8,0c0.1-0.1,0.5,0.1,0.7,0.2c1,0.4,1.7,0.1,2-1c0.4-1.4,0.6-2.9,1-4.6c-0.7,0.2-1.1,0.2-1.4,0.4
		c-0.8,0.6-1.5,0.8-2.2-0.1c-0.1-0.1-0.5,0-0.8,0.2c-0.7,0.4-2.1-0.1-2.4-0.8c-0.3-0.8-0.6-1.7-1-2.7c0.9-0.3,2-0.1,2.7-1.2
		c0-0.1,0.2,0,0.3,0c0.4-0.1,0.8-0.1,1.1-0.2c1-0.6,2-0.6,3,0c1,0.6,2.1,0.6,3.2,0.5c0.3,0,0.7-0.6,0.8-0.9c0-0.3-0.4-0.7-0.7-0.9
		c-0.2-0.2-0.5-0.5-0.9-0.6c-1.2-0.6-2.2-2.1-3.8-1c-0.2,0.1-0.8-0.2-1.1-0.5c-0.5-0.5-0.8-1-1.4-1.8c-0.6,0.8-1,1.4-1.4,2
		c-1.1,1.8-1.1,2.1,0.1,3.9c-1.1,0-1.9,0-2.8,0c-0.2,0-0.4,0.1-0.6,0.2c-0.4,0.2-0.7,0.4-1.2,0.8c0.3,0.5,0.7,1.1,1.3,1.9
		c-0.7-0.2-1.1-0.3-1.5-0.4c-1.1-0.2-2-1.2-2.3-2.3c-0.2-0.6-0.6-1.3-1-1.7c-1-0.9-2.2-1.7-3.3-2.6c-0.2-0.2-0.4-0.3-0.7-0.4
		c-0.1,0.3-0.3,0.8-0.2,1c0.7,0.9,1.4,1.7,2.2,2.4c0.7,0.7,1.6,1.2,2.4,1.7c-0.1,0.1-0.1,0.2-0.2,0.3c-0.3-0.2-0.6-0.4-1.1-0.7
		c-0.1,0.8,0,1.5-0.2,2c-0.2,0.6-0.7,1.2-1.2,1.8c-0.6-0.4-1.2-0.7-2-1.2c0.3-0.1,0.5-0.2,0.6-0.2c0.9,0.2,2,0.2,2.2-0.8
		c0.1-0.6-0.9-1.4-1.5-2.1c0-0.1-0.1-0.1-0.2-0.1c-1.2-0.4-1.9-1.3-2.5-2.5c-0.3-0.6-0.8-0.9-1.5-0.4c-0.8,0.5-1.5,1.2-2.6,0.6
		c-0.5-0.3-1.3-0.1-1.2,1.1c0,0.3-0.6,0.7-1,1c-0.8,0.5-1.4,1-1.5,2.2c-0.1,0.6-0.5,1.3-0.9,1.6c-0.7,0.4-1.6,0.5-2.4,0.8
		c-0.3,0.1-0.6,0.6-0.9,0.9c0.4,0.2,0.7,0.7,1,0.6c1.2-0.2,2.4-0.5,3.5-1c0.9-0.4,1.6-0.9,2.6-0.5c0.3,0.2,0.8-0.1,1.3-0.2
		c1.1-0.2,2.2-0.4,3.3-0.5c0.2,0,0.6,0.5,0.5,0.7c-0.1,0.9,0.6,1.9-0.4,2.6c-0.1,0,0,0.3,0.1,0.7C117.6,46,117.8,45.7,117.8,45.8z"
		/>
	<path class="st1" d="M62.2,10.6c1.4-0.6,2.6-1,3.9-1.6c0,0.6,0.1,0.9,0.1,1.3c0.3,0,0.7,0,1.1,0.1c0-0.1,0-0.2,0-0.3
		C67,10,66.8,9.9,66.4,9.8c0.8-0.7,1.6-0.4,2.1,0.2c0.4,0.5,0.6,1.4,1.7,1.1c0.5-0.1,1.2,0.7,1.8,1.1c-0.3,0.4-0.6,0.7-0.9,1.3
		c0.9,0.5,1.9,1,3,1.6c-0.7,0.4-1.4,0.7-2,1.1c-1.2,0.9-0.8-1.3-2-0.8c0.1,0.4,0.2,0.9,0.2,1.4c0,0.7-0.1,1.3-0.2,2
		c-0.8-0.4-1.3-0.7-1.8-0.9c0,0-0.1,0.1-0.1,0.1c0.3,0.3,0.6,0.7,0.8,1c-0.1,0.1-0.1,0.3-0.2,0.4c-0.8-0.2-1.7-0.5-2.7-0.8
		c-0.2-1.2-0.8-1.9-2.2-1.4c-0.4,0.1-0.8-0.1-1.2-0.1c0-0.2,0-0.4,0-0.6c0.6,0,1.2,0,1.7-0.1c0.5-0.1,1-0.5,1.5-0.8
		c0.2-0.1,0.4-0.3,0.6-0.4c1.4-0.5,1.5-1,0.4-2.1c-0.4-0.4-0.8-0.8-1-1c-0.6,0-1,0-1.4,0.1c-0.5,0-1,0.1-1.5,0.2
		c0.2,0.5,0.3,1,0.5,1.5c-0.8,1.5-2.5,0.9-4,1.4c0.8,0.7,1.4,1.2,2,1.7c-1.2,1-1.6,1.1-3.7,0.7c0.3-0.4,0.6-0.8,0.8-1.1
		c-1.3,0.4-2.7,0.5-3.9,1.1c-1.7,0.9-3.4,2-4.9,3.3c-1,0.9-0.3,2.5,0.9,2.9c0.9,0.3,1.7,0.9,2.6,1.2c0.6,0.2,1.3,0.3,1.9,0.4
		c-0.4,0.9-0.7,1.7-1.1,2.7c0.2,0.3,0.5,0.9,0.8,1.4c0.4-0.5,1-0.8,1.1-1.3c0.4-1.9,1.5-2.9,3.1-3.5c0.8-0.3,1.5-1.1,0.8-2.2
		c-0.1-0.1,0-0.5,0.2-0.7c0.5-0.7,1.1-1.4,1.6-2.1c0.5-0.8,1-1.3,2-0.9c0.3,0.1,0.8-0.2,1.2-0.1c0.3,0,0.7,0.2,1,0.4
		c0.4,0.3,0.8,0.7,1.3,1.2c0,0-0.2,0.1-0.3,0.4c-0.1,0.4-0.2,0.9-0.1,1.3c0.1,0.2,0.7,0.3,1,0.1c0.9-0.4,1.7-1,2.6-1.6
		c-0.1,1.4,1.1,2.5,0.3,3.8c-0.1,0.1,0.1,0.7,0.4,0.9c0.8,0.6,1.7,1.2,2.6,1.7c0,0.2,0,0.4,0,0.6c-0.7,0.5-1.4,0.9-2,1.5
		c-0.4,0.3-0.7,0.7-1,1c0.3,0.2,0.8,0.3,0.9,0.6c0.2,0.9,0.3,1.8,0.4,2.7c0,0-0.7,0.2-0.7,0.2c-0.4-1.2-1.4-0.9-2.3-0.9
		c-0.3,0-0.7-0.1-1.4-0.3c0.6-0.8,1-1.4,1.4-2c-1.1-0.6-2-0.3-2.9,0.7c-0.1,0.2-0.7,0.1-0.9-0.1c-0.5-0.6-1-0.5-1.6-0.1
		c-1,0.6-2,1.1-2.9,1.8c0.8-0.4,1.5-0.7,2.3-1.1c0.4-0.1,0.8-0.2,1.2-0.2c0.3,0,0.6,0.3,0.9,0.4c-0.2,0.3-0.4,0.5-0.7,0.9
		c0,0.2,0.1,0.6,0.1,1c0.8-0.2,1.3-0.1,1,1.3c0.8-0.5,1.3-0.9,2.1-1.4c-0.1,0.5-0.2,1-0.3,1.1c-1.5,0.7-3,1.3-4.6,1.9
		c-0.1-0.1-0.2-0.2-0.2-0.3c0.6-0.5,1.1-1,1.9-1.7c-0.7,0.1-1.3,0-1.7,0.2c-1.3,0.6-2.5,1.3-3.8,2c-0.7,0.4-0.9,0.9-0.3,1.7
		c-0.8,0.2-1.6,0.5-2.4,0.6c-1,0.1-1.4,0.8-1.9,1.5c-0.2,0.2-0.4,0.3-0.8,0.5c-0.1,0.2-0.3,0.8-0.5,1.4c-0.1,0-0.2,0-0.2,0
		c-0.1-0.4-0.1-0.7-0.2-1.5c-0.2,0.7-0.4,1-0.4,1.3c0.3,2.1-1.1,2.9-2.5,3.7c-1.1,0.7-2.2,1.5-3.1,2.4c-0.9,0.9-0.7,2.1-0.5,3.3
		c0.3,1.2,0.1,2.4-0.9,3.5c-0.3-1.1-0.8-2.2-0.8-3.3c-0.1-1-0.4-1.4-1.2-1.6c-0.8-0.2-1.6-0.3-2.4-0.5c-1.4-0.3-1.6-0.2-1.7,1.4
		c-0.3,0-0.6,0-0.9-0.1c-1.9-1-3.6-0.1-5.2,0.7c-0.5,0.3-0.9,0.9-1.1,1.5c-0.4,1-0.5,2-0.8,3.1c-0.4,1.4-0.4,2.8,0.5,4
		c0.2,0.2,0.1,0.6,0.2,0.9c0.4,0.1,0.8,0,1.1,0.2c0.8,0.5,3.8-0.5,3.7-1.3c-0.2-1.5,0.5-1.4,1.4-1.4c0.7,0,1.4-0.2,2.1-0.4
		c-1,2-1.9,3.9-2.9,5.9c0.8,0.1,1.7,0.5,2.3,0.1c1.2-0.6,1.9,0,2.6,0.6c-0.3,1.3-0.6,2.5-0.8,3.8c-0.1,1.5,1.5,2.7,2.8,2.1
		c1.5-0.7,1.7-0.6,2.8,1.1c0.9-2.3,2.7-3.1,4.6-4c0,0.8,0,1.7,0,2.3c0.5-0.8,1.1-1.6,1.7-2.5c1.5,2.6,3.8,1.9,5.6,1.8
		c1,0.9,1.8,1.6,2.6,2.3c0.4,0.3,0.8,0.6,1.1,1.1c0.5,1,1.3,1.6,2.4,1.4c1.8-0.2,3.3,0.5,3.9,2.2c0.4,1,1.7,1.6,1,3
		c0,0.1,0.2,0.3,0.3,0.4c0.3,0.5,0.6,1,0.9,1.5c1.3-1.3,2.5-0.9,3.5,1.2c2.3-0.1,4.5-0.1,6.3,1.8c0.1,0.1,0.2,0.2,0.3,0.2
		c1.4,0.4,1.7,1.4,1.7,2.8c0,1.3-0.3,2.3-1.2,3.2c-0.4,0.3-0.5,0.9-0.8,1.4c-0.2,0.3-0.4,0.6-0.6,0.9c-0.2,0.4-0.5,0.8-0.5,1.1
		c0.4,2.9-0.7,5.4-1.4,8c-0.1,0.3-0.3,0.6-0.5,0.7c-1,0.5-2.1,0.9-3.2,1.2c-1.4,0.4-2.1,1.1-1.9,2.5c0.2,1.8-0.2,3.2-1.4,4.2
		c-0.2,0.1-0.6,0.2-0.7,0.4c-0.2,0.7-0.3,1.4-0.5,2.1c-0.4,1.6-1,2-2.6,1.6c-0.4-0.1-0.8-0.2-1.3-0.4c0.5,0.6,0.9,1,1.2,1.5
		c0.2,0.4,0.6,1,0.4,1.3c-0.2,0.5-0.7,0.9-1.1,1.2c-0.3,0.2-0.8,0.1-1.2,0.2c-0.4,0.1-0.8,0.2-1.1,0.3c-0.1,2.5-0.1,2.5-1.9,2
		c-0.1,0.1-0.1,0.2-0.2,0.3c0.6,0.5,1.1,1,1.6,1.4c-0.2,0.6-0.4,1.3-0.7,1.9c-0.1,0.2-0.3,0.3-0.4,0.5c-0.2,0.3-0.4,0.6-0.6,0.8
		c0.3,0.3,0.6,0.7,1,0.8c1.2,0.4,1.2,0.5,0.5,1.7c-0.3,0.6-0.8,1.2-0.8,1.9c0,0.6,0.6,1.1,1,1.7c-0.1,0-0.3,0.1-0.7,0.1
		c1.3,0.8,2.6,1.5,3.9,2.2c-0.8,0.5-1.6,0.9-2.6,0.5c-1.7-0.7-3.4-1.2-4.8-2.7c-1-1.1-1.2-2.5-2.3-3.4c-0.2-0.1,0.1-0.8,0.2-1.4
		c-0.3-0.2-0.7-0.5-1.1-0.8c1-1.1,1.2-3.3,0.3-4.4c-0.2-0.3-0.9-0.2-1.6-0.3c0.1-0.3,0.3-0.8,0.3-1.2c0-0.6-0.1-1.3-0.3-1.8
		c-0.4-0.9-0.4-1.6-0.2-2.5c0.3-1.2,0.3-2.6,0-3.8c-0.8-3.3-0.6-6.5-0.7-9.8c-0.1-2.1,0-4.4-2.3-5.4c-3.1-1.3-4.5-4-5.7-7
		c-0.9-2.3-1.4-2.8-2.8-3.4c0.1-1.2-0.7-2.7,0.9-3.4c-1-0.9-0.8-2.8,0.2-3.9c0.6-0.7,1.2-1.4,1.8-2.1c0.5-0.6,0.3-3.5-0.1-4.2
		c-0.2-0.3-0.1-0.8-0.2-1.4c-0.1-0.1-0.4-0.3-0.9-0.6c-0.3,0.6-0.7,1.2-1,1.9c-0.8-0.8-2-1.1-3.1-1.9c-1.4-1.1-1.2-3.1-2.8-3.9
		c-0.2-0.1-0.7-0.2-1.2-0.3c-0.4-0.1-0.8-0.5-1.1-0.4c-0.8,0.2-1.1-0.3-1.5-0.9c-0.8-1.4-1.1-1.5-2.5-1c-0.3,0.1-0.7,0.2-1,0.1
		c-1.2-0.5-2.4-1.1-3.6-1.7c-0.4-0.2-0.7-0.4-1.1-0.5c-1.4-0.4-2-1.4-1.8-3c0.1-0.6-0.1-1.4-0.4-2c-0.8-1.6-1.6-3.1-2.6-4.5
		c-0.8-1.1-1.2-2.1-1.2-3.4c0-0.2-0.3-0.5-0.8-0.7c-0.1,0.5-0.4,1-0.3,1.4c0.2,0.9,0.6,1.7,0.8,2.5c0.5,1.4,0.9,2.8,1.4,4.2
		c-0.2,0.1-0.4,0.2-0.6,0.3c-0.4-0.8-0.7-1.6-1.1-2.4c-0.4-0.8-1-1.4-1.5-2.2c0.1-0.2,0.4-0.5,0.3-0.7c-0.7-2-0.1-4.6-2.2-6
		c-0.3-0.2-0.6-0.8-0.7-1.3c-0.4-2.9,0.1-5.5,1.8-7.8c0.9-1.2,1.7-2.5,2.5-3.8c0.9,0.5,1.5-0.3,1.2-1.5c-0.2-0.6-0.3-1.2-0.5-1.8
		c0.3-0.1,0.5-0.2,1.1-0.3c-3-0.7-2.1-2.4-1.3-4.2c-0.6,0-0.9,0-1.3,0c0-0.2,0-0.3,0-0.5c0.1-2.7,0.1-2.7-2.3-3.4
		c-0.4-0.1-0.7-0.3-1.1-0.5c-0.8-0.5-1.6-0.7-2.5,0c-0.5,0.4-1,0.4-1.6,0c-0.5-0.3-1.5,0-2.1,0.4c-2.9,1.8-5.9,3.1-9.1,4
		c0-0.1-0.1-0.2-0.1-0.3c1.5-0.6,3-1.2,4.6-1.8c0-0.1,0-0.2-0.1-0.3c-0.5-0.1-1-0.1-1.6-0.2c0.1-0.4,0.2-0.8,0.3-1.1
		c0-0.1,0-0.2-0.1-0.2c-0.9-0.7-0.9-1.3,0.1-1.7c1.3-0.5,2.6-0.8,4-1.3c0.8-0.3,1.6-0.6,2.4-1c-0.1-0.2-0.1-0.4-0.2-0.6
		c-0.6,0.1-1.2,0.2-1.8,0.2c-0.4,0-0.8-0.2-1.2-0.4c0.4-0.3,0.7-0.7,1.1-0.8c0.8-0.1,1.6,0.1,2.5,0.1c0.4,0,0.8-0.1,1.1-0.3
		c0.1,0,0-0.6-0.2-0.9c-0.3-0.6-0.3-1.1,0.5-1.2c2.5-0.6,5-1.4,7.5-1.6c2.1-0.2,4.3,0.2,6.5,0.4c0.9,0.1,1.9,0.2,2.8,0.4
		c0.3,0.1,0.7,0.2,1,0.2c0.6,0.1,1.3,0.2,1.9,0.3c0.5,0,1.2-0.7,1.5,0.4c0,0.1,0.4,0.1,0.6,0c0.5-0.1,1-0.3,1.5-0.5
		c1-0.5,1.9-0.9,3.1-0.5c1.8,0.6,3.8,0.6,5.7,0.8c0,0.1,0,0.2,0.1,0.4c-0.2,0.2-0.5,0.4-0.7,0.6c0,0.1,0,0.2,0.1,0.3
		c1-0.1,2-0.3,3.1-0.4c0,0.3,0,0.5,0.1,1.2c0.3-0.5,0.4-0.7,0.6-0.9c0.7-0.7,1.3-1.1,2.4-0.6c1,0.4,2.2,0.4,3.3,0.4
		c0.3,0,0.6-0.5,0.8-0.8c0.7-0.9,1.4-1.1,2.5-0.5c-0.6,0.5-1,0.9-1.5,1.3c0.1,0.1,0.1,0.2,0.2,0.3c1-0.3,1.7-0.9,2-1.9
		c0.6-1.8,3.4-3.7,5.3-3.2c-0.8,0.4-1.7,0.6-2.3,1.1c-0.6,0.5-0.8,1.4-1.3,2.2c0.6,0.3,1.8,0.1,0.7,1.5c0.1,0.1,0.2,0.1,0.3,0.2
		c0.8-0.2,1.6-0.5,2.5-0.7c-0.1-0.6-0.1-1-0.2-1.4c-0.4-0.1-0.9-0.2-1.3-0.3c0-0.1,0-0.2,0-0.2c0.3-0.1,0.5-0.1,0.9-0.3
		c-0.3-0.1-0.5-0.2-0.7-0.3c-0.1-0.8,2.3-1.9,3.6-1.8C63.3,9.6,62.9,10.1,62.2,10.6z"/>
	<path class="st1" d="M223.8,89.8c0.1,0.6,0.3,1.1,0.3,1.7c0.1,0.8,0.2,1.4,0.9,1.9c0.4,0.3,0.5,1.3,0.5,2c0.1,1.3-0.1,2.7,1.4,3.3
		c0.1,0,0.1,0.2,0.2,0.3c0.6,1.3,1.3,2.6,1.9,4c0.2,0.5,0.4,1.2,0.4,1.7c-0.3,2.7-1.1,5-3.2,6.7c-1.2,1-2,2.4-3.1,3.5
		c-0.5,0.6-1.2,1-1.9,1.4c-0.3,0.2-0.8,0.2-1.1,0.5c-0.7,0.6-1.3,0.5-1.8-0.3c-1.6,1.1-3.1,0.3-3.2-1.6c0-0.6-0.2-1.3-0.3-1.9
		c-0.1-0.4-0.1-0.9-0.1-1.4c-0.5,0.5-1.2,1-1.9,1.6c-0.1-0.3-0.2-0.6-0.2-0.8c0.2-1.8-1-2.6-2.4-2.3c-2.1,0.4-4.4,0.4-6.2,2
		c-0.2,0.2-0.6,0.3-0.9,0.3c-1.4-0.2-2.7,0.3-3.8,1c-0.8,0.5-1.4,0-1.9-0.6c-0.1-0.2-0.1-0.8,0-0.9c1.3-0.8,1.1-2.2,1.1-3.4
		c0-0.7-0.2-1.4-0.2-2.2c0-0.6-0.6-1.4,0.3-1.9c0.1,0,0-0.5-0.1-0.7c-0.3-1.6,0.2-2.4,1.4-3.3c1.3-1.1,2.9-1.3,4.4-1.8
		c0.7-0.2,1.3-1.2,1.9-1.9c0.4-0.4,0.1-1.7,1.3-0.9c0.1,0.1,0.7-0.7,1.1-1.1c0.5-0.5,0.9-1.2,1.4-1.5c0.4-0.2,1.1-0.1,1.4,0.1
		c0.8,0.8,1.3,0.5,1.5-0.5c0.3-1.4,1.5-1.9,2.5-2.5c0.4-0.2,1.1,0.2,1.7,0.3c0.5,0.1,1.1,0.1,1.9,0.2c-0.3,0.5-0.5,1-0.8,1.5
		c-0.9,1.5-0.9,1.7,0.5,2.5c0.4,0.2,0.8,0.6,1.1,0.9c0.8,0.7,1.3,0.7,1.8-0.3c0.5-1.2,0.8-2.6,1.1-3.9c0.2-0.6,0.4-1.2,0.5-1.9
		C223.6,89.8,223.7,89.8,223.8,89.8z"/>
	<path class="st1" d="M61.4,8.5c0.3-0.5,0.4-0.8,0.6-1c-0.6-0.1-1.1-0.3-1.7-0.4c0-0.2,0-0.4,0-0.5c2.1,0.3,4.3,1,6.4-0.9
		c-1.4,0.1-2.9,1.1-3.4-1.1c1.5-1,3.1-1.2,4.8,0c0-0.2,0-0.4,0-0.6C68,4,67.8,3.8,67.4,3.5c5.1-0.4,9.9-1.4,15.1-0.4
		c-0.4,0.2-0.7,0.3-0.9,0.3c-0.2,0.1-0.5,0.1-0.7,0.4c0.5-0.1,0.9-0.3,1.4-0.3c1.1-0.1,2.3-0.2,3.4-0.3c1.3-0.1,2.7,0,4-0.2
		c3.6-0.5,7.2-1.1,10.8-0.5c0.4,0.1,0.7,0.4,1,0.7c-0.1,0.2-0.1,0.3-0.2,0.5c1.5,0,2.9,0,4.3,0c-1.5,0.6-3.1,1.2-4.9,1.9
		c0.6,0.6,0.9,0.9,1.3,1.3c-0.1,0.1-0.1,0.2-0.2,0.3c-0.5-0.1-0.9-0.3-1.5-0.4c0.7,1.2,0.5,2.2-0.6,2.8c-0.5,0.3-1,0.6-1.5,0.9
		c1.4,1.6-0.5,1.7-0.8,1.8c-1.7,0.6-3.5,1-5.2,1.5c-0.4,0.1-0.8,0.4-1.2,0.6c-1.1,0.4-2.2,0.9-3.4,1.3c-0.8,0.3-1.7,0.4-2.1,1.4
		c-0.1,0.2-0.3,0.4-0.5,0.6c-0.7,0.9-1.4,1.8-2.2,2.6c-0.3,0.3-0.9,0.7-1,0.6c-1.1-0.9-3-0.8-3-3c0-1-0.2-2-0.2-3.1
		c0-1,0.5-1.6,1.6-1.6c0.4,0,0.8-0.4,1-0.8c-0.6,0.1-1.2,0.2-1.9,0.3c0-0.2-0.1-0.3-0.1-0.5c0.6-0.3,1.1-0.7,1.8-1.1
		c-0.5-0.1-1-0.1-1.4-0.2c0.2-0.5,0.6-1,0.6-1.4c-0.1-2-0.5-2.3-2.4-2.3c-0.7,0-1.3,0.2-2,0.2c-0.5,0-1-0.3-1.5-0.5
		c0-0.1,0-0.2,0.1-0.4c0.8-0.1,1.5-0.2,2.3-0.4c0-0.1,0-0.1,0-0.2c-0.8,0-1.7,0-2.5,0c0-0.1,0-0.2,0-0.4c1.6-0.3,3.2-0.6,4.9-0.9
		c-0.1-0.3-0.2-0.5-0.4-0.8c-1.4,0.3-3,0.4-4.4,1.1C73,5.8,71.4,5.6,70.4,7c-0.2,0.3-0.9,0.3-1.4,0.3c-1.6,0-3.2-0.1-4.8-0.1
		c-0.3,0-0.7,0.1-1,0.2c0,0.1,0,0.2,0,0.3c1.7,0,3.5,0,5.2,0c0,0.2,0,0.3,0,0.5C66.2,9,63.9,8.5,61.4,8.5z"/>
	<path class="st1" d="M230.3,89.5c-1.6-0.1-2.8-0.5-3.5-2.1c-0.2-0.4-0.9-0.7-1.4-0.7c-0.2,0-0.4,0.8-0.8,1
		c-0.6,0.3-1.3,0.4-1.9,0.4c-0.4-0.1-0.7-0.8-1.2-0.9c-0.4-0.1-0.9,0.2-1.3,0.3c-0.1-0.1-0.1-0.2-0.2-0.3c0.3-0.3,0.7-0.5,1-0.8
		c-0.1-1.8-0.4-2.2-2.2-2.8c-0.3-0.1-0.7-0.2-1-0.3c-0.3-0.2-0.6-0.4-0.9-0.6c-0.1,0.2-0.2,0.4-0.3,0.8c-0.2-0.6-0.4-1-0.6-1.4
		c0.4-0.1,0.8-0.3,1.1-0.4c-0.8-0.4-1.5-0.8-2.4-1.2c0.8-0.5,1.3-1.4,2.2-0.5c0.2,0.2,0.5,0.5,0.6,0.8c0.2,0.6,0.4,1.2,0.7,2.2
		c0.4-0.5,0.5-0.7,0.7-0.9c0.7-1.3,1.4-1.4,2.6-0.8c1.1,0.5,2.2,0.9,3.3,1.4c0.6,0.3,1.2,0.7,1.8,1.2c0.6,0.5,1.1,1.2,1.6,1.8
		c-0.2,0.1-0.4,0.3-0.8,0.5C228.4,87.3,229.3,88.3,230.3,89.5z"/>
	<path class="st1" d="M205.2,74.1c-1.5,1.1-1.5,1.9,0,4.2c-0.4,0-0.7,0-1,0c-0.5,1.5-0.9,3-1.4,4.6c-0.1,0-0.6,0.1-1,0.2
		c0-0.1,0.1-0.2,0.1-0.3c-1.2-0.3-2.4-0.5-3.5-0.8c-0.4-1-0.9-1.8-1.1-2.8c-0.1-0.5,0-1.2,0.2-1.7c0.1-0.1,0.8,0,1.3,0.1
		c0.8-1.3,2-2.2,3.4-3.1c0.6-0.4,0.8-1.4,1.2-2.2C203.9,72.9,204.6,73.5,205.2,74.1z"/>
	<path class="st1" d="M148.6,91.2c0.3,0.9,0.7,1.5,0.7,2.1c0,0.9-0.2,1.9-0.4,2.8c-0.6,2.3-1.5,4.6-2,6.9c-0.3,1.2-1.2,1.5-1.9,1.5
		c-0.8,0-1.1-0.8-1.3-1.8c-0.2-1.3-0.1-2.3,0.6-3.3c0.3-0.4-0.1-1.3,0-1.9c0.1-0.8,0.4-2,0.8-2.1C146.9,94.7,147.6,93.1,148.6,91.2z
		"/>
	<path class="st1" d="M43,12.2c1.1,0,2.1,0,3.2,0c0-0.1,0-0.3,0-0.4c-0.9-0.1-1.7-0.2-2.9-0.4c0.6-0.1,1-0.2,1.4-0.2
		c-1.3-1-2.6-0.2-3.9,0.2c-0.2-0.3-0.4-0.6-0.6-0.8c1-0.6,2-1.4,3.1-1.8c1.5-0.5,3-0.3,4.3,0.9c0.5,0.4,1.3,0.3,2,0.4
		c0.2,0,0.5,0.1,0.7,0.2C51.1,9.9,52.1,9.5,53,9c0.1,0.1,0.1,0.3,0.2,0.4c-0.5,0.4-1.2,0.7-1.4,1.2c-0.2,0.4,0.2,1.1,0.4,2
		c-2.3,0.3-4.8,0.6-7.3,0.8c-0.6,0-1.3-0.6-2-0.9C42.9,12.4,43,12.3,43,12.2z"/>
	<path class="st1" d="M192.9,78.7c-0.1,0.2-0.2,0.6-0.3,0.6c0.8,1.2,1.7,2.1,2,3.2c0.2,0.6,0.4,2.1-1.4,2.3
		c-1.2-1.8-2.9-3.7-3.8-5.9c-0.7-1.8-1.9-2.8-3-4.1c-0.3-0.3-0.6-0.8-1-1.5c1,0.2,1.7,0.4,2.6,0.6C189,75.9,190.8,77.4,192.9,78.7z"
		/>
	<path class="st1" d="M111.2,29.1c-0.7,0.1-1.4,0.3-2,0.4c-1,0.2-1.9,0.3-3.2,0.5c0.8-0.5,1.4-0.9,2-1.3c-0.4,0-0.9-0.1-1.3-0.1
		c0.2-0.5,0.5-1,0.8-1.6c0.1,0,0.4-0.1,1.2-0.3c-0.7-0.6-1.1-1-1.6-1.4c0,0,0.2-0.3,0.4-0.9c-0.4,0.3-0.6,0.4-0.8,0.5
		c0-2-0.6-2.2,2.1-3.3c-0.3,0.5-0.5,0.8-0.8,1.3c0.5,0,0.9,0,1.4,0c-0.3,0.5-0.6,0.8-0.8,1.1c0.6,1,1.3,1.9,1.9,2.9
		c0.4,0.3,1.8,0.2,0.4,1.4C110.8,28.5,111.1,28.9,111.2,29.1C111.2,29.1,111.2,29.1,111.2,29.1z"/>
	<path class="st1" d="M213.4,38.7c1.9,0.5,2.4,1.2,2.4,2.8c0,0.7,0.2,1.4,0.4,2c0.3,0.7,0.4,1-0.5,1.1c-0.6,0.1-1.2,0.5-1.8,0.5
		c-0.1,0.4-0.3,0.7-0.5,1.4c-0.3-0.6-0.5-1-0.7-1.5c-1,0.2-2,0.5-3.2,0.8c1-1.9,1.7-1.9,3.3-1.6c0-0.6,0-1.2,0-1.7c0.3,0,1,0.1,1,0
		c0.2-0.7,0.3-1.4,0.3-2.1C214.1,39.9,213.7,39.4,213.4,38.7z"/>
	<path class="st1" d="M224.6,125.1c1.4-0.8,2.7-1.5,4-2.3c1.1-0.6,2.2-1.2,3.1-1.9c0.6-0.5,1.1-1.3,1.9-0.2
		c-0.1,0.2-0.2,0.6-0.5,0.8c-1.2,0.8-2.4,1.5-3.5,2.2c-0.5,0.3-0.9,0.7-1.3,1.1C227.2,126,226.2,126.1,224.6,125.1z"/>
	<path class="st1" d="M210,77.8c-0.3,0.9-1,1.3-2.1,1c-0.5-0.1-1.1,0-1.8,0c0.2,0.7,0.3,1.2,0.4,1.6c0.8-0.3,1.5-0.6,2.3-0.9
		c0,0.1,0.1,0.2,0.1,0.3c-0.5,0.4-1,0.9-1.5,1.3c0.3,0.7,0.6,1.4,0.9,2.2c-0.3,0.2-0.7,0.4-1.1,0.7c-0.2-0.7-0.4-1.4-0.7-2.1
		c-1,0.7,0.6,2.4-0.9,3c-0.6-2.6-0.7-5,0.9-6.7C207.9,78,209,77.9,210,77.8z"/>
	<path class="st1" d="M148.5,7.3c-2.1,0.6-4.6,0.4-5.8,3.2c0.5,0.4,1.1,0.8,1.7,1.3c0,0.1,0,0.2,0,0.3c-1.3-0.3-2.5-0.6-3.8-0.9
		c-0.1-0.1-0.1-0.3-0.2-0.4c0.8-1,1.6-1.9,2.5-2.9c0.2-0.2,0.5-0.3,0.7-0.4c1.2-0.3,2.3-0.5,3.5-0.7c0.4-0.1,0.8,0.1,1.3,0.1
		C148.4,7,148.5,7.1,148.5,7.3z"/>
	<path class="st1" d="M96.6,15.7c0.1-0.1,0.4-0.4,0.8-0.7c0.3,0.4,0.5,0.7,0.7,1c1.1-0.3,2.2-0.6,3.3-0.7c0.4,0,0.8,0.6,1.5,1.2
		c-1.4,0.5-2.6,1.2-3.8,1.4C97.9,18,97,17.2,96.6,15.7z"/>
	<path class="st1" d="M194.1,85.9c0.5-1.1,1.3-1,1.8-0.7c1.4,1,3,0.6,4.5,0.6c0.2,0,0.5,0,0.7,0.3c-0.4,0.1-0.8,0.3-1.2,0.4
		c0,0.8,1.7-0.2,1.1,1.2C198.8,87.2,196.4,87.2,194.1,85.9z"/>
	<path class="st1" d="M46.3,7.3c1.4-0.3,2.8-0.6,4.6-1C50.4,6.7,50.2,6.9,50,7c0.8,0.3,1.7,0.7,2.6,1.1c0.4-1.7,1.2-1,2.1-0.1
		c-0.7,0.1-1.3,0.3-1.9,0.4c-0.6,0.1-1.2,0.2-1.9,0.3c-0.4,0-1,0.5-1.2-0.5c0-0.2-0.6-0.3-1-0.3c-0.8-0.1-1.7-0.1-2.5-0.2
		C46.3,7.5,46.3,7.4,46.3,7.3z"/>
	<path class="st1" d="M105.8,27.9c-0.9,0.3-1.8,0.6-2.6,0.9c-0.1-0.1-0.1-0.3-0.2-0.4c0.3-0.3,0.5-0.6,0.7-0.8
		c-0.1-0.4-0.4-0.8-0.2-1c0.2-0.3,0.7-0.4,1.1-0.6c0-0.1-0.1-0.3-0.1-0.5c0.4-0.1,0.8-0.3,1.3-0.3c0.7,0,1.1,0.2,0.6,1
		C105.9,26.7,105.9,27.3,105.8,27.9z"/>
	<path class="st1" d="M205.1,60.9c1.9,0.4,2.2,1,1.4,2.6c-0.3,0.7,0.1,1.2,0.8,1.5c0.6,0.2,1,0.8,1.3,1.4c-0.9-0.3-1.7-0.6-2.9-1
		C204.5,64.4,205.4,62.6,205.1,60.9z"/>
	<path class="st1" d="M50,59.5c-0.8,0.1-1.7,0.1-2.7,0.2c0.2-0.3,0.3-0.5,0.4-0.7c-1.6-1-3.1-2.6-5.3-1.6c0.2-0.8,1-1.3,2.1-1
		c0.8,0.2,1.7,0.5,2.4,0.9c1,0.5,2,1.3,3,1.9C50,59.2,50,59.4,50,59.5z"/>
	<path class="st1" d="M215.3,37.8c-0.6-0.2-1.3-0.4-2.1-0.6c0,0.1-0.1,0.1-0.1,0.2c0.2,0.2,0.4,0.4,0.7,0.6
		c-0.2,0.1-0.3,0.2-0.5,0.4c-0.3-0.7-1.1-1.2-0.2-2.1c0.2-0.2-0.4-1.2-0.7-2.1c1.4,0.8,2.6,1.5,3.9,2.2
		C215.9,37,215.6,37.4,215.3,37.8z"/>
	<path class="st1" d="M210.3,72.6c0,0.2,0.1,0.5,0.2,0.8c-0.1,0.1-0.3,0.2-0.4,0.3c-0.4-0.6-0.9-1.2-1.4-2c-0.2,0.1-0.7,0.3-1.4,0.6
		c0.4-0.5,0.7-1.1,1.1-1.5c0.1-0.1,0.5,0,1,0c0.2-0.3,0.5-0.7,1.1-1.4c0.3,1,0.6,1.8,0.8,2.7C211.1,72.2,210.7,72.4,210.3,72.6z"/>
	<path class="st1" d="M207.8,27.8c-0.1-0.4-0.3-0.7-0.4-1.1c0.1,0,0.1-0.1,0.2-0.1c1.2,1.2,2.4,2.5,3.6,3.7c0.1,0.1,0.2,0.2,0.1,0.2
		c-0.9,1.8,1.3,1.8,1.5,2.9c-0.2,0.1-0.5,0.2-0.7,0.2C210.7,31.7,209.3,29.8,207.8,27.8C207.8,27.8,207.8,27.8,207.8,27.8z"/>
	<path class="st1" d="M217,119.3c1,0,1.8,0,2.6,0c-0.3,1.5-1.5,2-2.4,2.6c-0.1,0-0.7-0.5-0.6-0.7C216.6,120.6,216.9,119.9,217,119.3
		z"/>
	<path class="st1" d="M57.4,9c0,0.6-1,0.4-0.4,1.3c0.2,0.3-1.9,1.1-2.4,0.7c-0.3-0.3-0.5-0.7-0.8-1.1c1,0.6,1.5-0.6,2.3-0.7
		C56.6,9.1,57,9,57.4,9z"/>
	<path class="st1" d="M157.9,4.3c0.5-0.2,1-0.6,1.5-0.5c1.2,0.3,2.3,0.7,3.4,1.1c0,0.2-0.1,0.3-0.1,0.5c-1.5-0.2-3.1-0.4-4.6-0.7
		C158,4.7,157.9,4.5,157.9,4.3z"/>
	<path class="st1" d="M51.1,59.3c1.2,0.4,2.4,0.7,3.6,1.1C52.8,61.8,51.7,61.5,51.1,59.3z"/>
	<path class="st1" d="M173.1,70.2c0.6-0.4,1.1-0.4,1.4,0.5c0.8,2,0.8,2-0.8,2.8C173.5,72.3,173.3,71.2,173.1,70.2
		C173.1,70.1,173.1,70.2,173.1,70.2z"/>
	<path class="st1" d="M190.2,7.8c-2.1,1-3.9,0.7-4.6-0.4C187.2,7.6,188.7,7.7,190.2,7.8z"/>
	<path class="st1" d="M59.5,7.1c-0.8,1.4-1.9,1.3-3.6,0.2C57,7.2,58.2,7.2,59.5,7.1z"/>
	<path class="st1" d="M197,61.2c-0.5-0.1-0.9-0.1-1.3-0.3c-0.1-0.1-0.2-0.7-0.1-0.8c0.4-0.4,0.9-0.7,1.7-1.1
		C197.2,60,197.1,60.5,197,61.2z"/>
	<path class="st1" d="M210.5,48.5c-0.2-0.3-0.5-0.5-0.7-0.8c-0.1-0.2,0-0.5-0.1-0.7c-0.1-0.3-0.3-0.6-0.5-0.8
		c0.2-0.1,0.4-0.3,0.5-0.2c0.4,0.3,0.8,0.6,1,1c0.2,0.4,0.1,0.9,0.1,1.4C210.7,48.3,210.6,48.4,210.5,48.5z"/>
	<path class="st1" d="M232,83.6c-0.5,1.7-1.8,2.3-2.9,1.2C230,84.4,231,84,232,83.6z"/>
	<path class="st1" d="M204.9,54.4c0,1,0,2,0,3.1C203.9,56,203.9,55.1,204.9,54.4z"/>
	<path class="st1" d="M208.6,89.4c0.5-1.4,1.4-2.1,3-2C210.5,88.1,209.6,88.8,208.6,89.4z"/>
	<path class="st1" d="M60.6,5.4C60.3,6,60.3,6,58,5.8C58.4,5,58.4,5,60.6,5.4z"/>
	<path class="st1" d="M205.5,87.5c1.5-0.1,2.7-0.2,4-0.3C208.6,87.9,206.5,88.1,205.5,87.5z"/>
	<path class="st1" d="M236,102.7c-0.6-0.7-1.3-1.5-1.9-2.2c0.1-0.1,0.2-0.2,0.2-0.2c0.7,0.6,1.5,1.3,2.2,1.9
		C236.4,102.3,236.2,102.5,236,102.7z"/>
	<path class="st1" d="M163.6,6.1c0.1-1.2,0.9-1.3,2.6-0.3C165.3,5.9,164.5,6,163.6,6.1z"/>
	<path class="st1" d="M202.4,87.6c0.8-0.1,1.7-0.2,2.5-0.3c0,0.2,0,0.3,0.1,0.5c-0.8,0.1-1.6,0.3-2.5,0.4
		C202.5,88,202.5,87.8,202.4,87.6z"/>
	<path class="st1" d="M36.2,80.5c-0.4-0.2-0.9-0.4-1.3-0.7c0,0,0.2-0.5,0.3-0.7c0.4,0.2,0.9,0.5,1.3,0.7
		C36.4,80.1,36.3,80.3,36.2,80.5z"/>
	<path class="st1" d="M116.7,38.7c0,0.9,0.6,1.9-0.8,2.2C116,40.1,115.2,39.1,116.7,38.7z"/>
</g>
</svg>
